<svg xmlns="http://www.w3.org/2000/svg" viewBox="0 0 200 200">
  <!-- Background -->
  <rect width="200" height="200" fill="#2C2C2A"/>

  <!--
    S-logo: white S shape on dark background.
    The white path is the negative-space S from the original Slate logo,
    rendered as a positive white form on the dark background.
    Path traces the full outer boundary of the S clockwise.
  -->
  <path fill="#FFFFFF" d="
    M 148,32
    C 112,8 58,14 34,46
    C 12,74 18,108 44,126
    C 58,136 78,140 100,142
    L 108,143
    C 120,144 130,149 134,160
    C 138,173 130,187 114,191
    C 98,195 76,188 64,176
    L 50,188
    C 64,202 90,210 116,204
    C 142,198 162,178 160,154
    C 158,132 142,120 118,116
    L 102,114
    C 82,112 56,104 46,84
    C 36,64 46,40 66,32
    C 84,25 106,30 118,46
    C 126,55 128,66 124,76
    L 142,82
    C 148,68 152,48 148,32
    Z
  "/>
</svg>
